# xmcd
#
# Track frame offsets: 
#        150
#        10176
#        27464
#        41509
#        69300
#        90524
#        105545
#        122657
#        138334
#        152530
#        176068
#        193770
#        218616
#        234891
#        257973
#        283224
#
# Disc length: 3974 seconds
#
# Revision: 0
# Processed by: cddbd v1.5.2PL0 Copyright (c) Steve Scherf et al.
# Submitted via: ExactAudioCopyFreeDBPlugin 1.0
#
DISCID=d70f8410
DTITLE=Various Artist - Blues From the East Coast
DYEAR=2005
DGENRE=Blues
TTITLE0=Matt Anderson - If I Can't Have You
TTITLE1=Allard Barkhouse - Choked Up
TTITLE2=Brian Bourne - Feel Like Runnin'
TTITLE3=Carter Chaplin - Like A Fool
TTITLE4=Morgan Davis - Waffle House Blues
TTITLE5=Andrew Gillis - Mad Hours
TTITLE6=Shirley Jackson - Three Things Worth Doin'
TTITLE7=Eileen Joyce - One Night Jam
TTITLE8=Katrein - Cuss Da Blues
TTITLE9=Frank MacKay - Black and Blue
TTITLE10=Stuart MacLean - Slow It Down
TTITLE11=Theresa Malenfant - Rest Easy
TTITLE12=Pam Marsh - Mellow Blue
TTITLE13=Garrett Mason - Before It Rains
TTITLE14=Matt Minglewood - Darkest Shade of Blue
TTITLE15=Joe Murphy - Can't Take It
EXTD=
EXTT0=
EXTT1=
EXTT2=
EXTT3=
EXTT4=
EXTT5=
EXTT6=
EXTT7=
EXTT8=
EXTT9=
EXTT10=
EXTT11=
EXTT12=
EXTT13=
EXTT14=
EXTT15=
PLAYORDER=
